<?xml version="1.0" encoding="UTF-8"?> 
<svg xmlns="http://www.w3.org/2000/svg" viewBox="0 0 200 30" fill="currentColor">
  <path d="M14.2,9.4h-8V4h16.5v3.6c-0.5,4.4-2.7,7.6-6.8,9.5l7,9.1h-7.3l-6.1-9.1h-3.3v9.1H0V4h16.2c4.8,0,7.5,2,7.5,5.8 c0,3.2-2,5.2-5.8,5.9C16.2,16.3,14.6,13.3,14.2,9.4z M13.9,13.6c2.4,0,3.7-1.2,3.7-3.1c0-1.9-1.3-3.1-3.7-3.1H6.2v6.2H13.9z"/>
  <path d="M36.9,4h6.2v22.4h-6.2V4z"/>
  <path d="M66.1,4v22.4h-6.2l-9.9-13.4v13.4h-6.2V4h6.2l9.9,13.4V4H66.1z"/>
  <path d="M84.3,26.4h-6.2V4h12.5c6.6,0,10.2,3.6,10.2,8.4c0,3.4-1.8,7.2-6.8,8.2L101.5,26h-7.3l-6.5-5.3h-3.4V26.4z M84.3,17.3 h5.4c2.4,0,4.9-0.9,4.9-4c0-2.6-1.8-4.2-5.6-4.2h-4.8V17.3z"/>
  <path d="M133.5,15.7c0,6.8-5.7,11.3-12.6,11.3c-6.9,0-12.6-4.4-12.6-11.3V4h6.2v11.5c0,3.5,2.6,5.8,6.4,5.8 c3.8,0,6.4-2.3,6.4-5.8V4h6.2V15.7z"/>
  <path d="M138.1,15.1c0-6.7,5.7-11.6,12.6-11.6c6.9,0,12.6,5,12.6,11.6c0,6.7-5.7,11.7-12.6,11.7 C143.8,26.8,138.1,21.8,138.1,15.1z M157.1,15.1c0-3.3-2.6-6-6.4-6c-3.8,0-6.4,2.7-6.4,6c0,3.3,2.6,6.1,6.4,6.1 C154.5,21.2,157.1,18.5,157.1,15.1z"/>
  <path d="M174.6,4h6.2v17h12.8v5.3h-19.1V4z"/>
  <path d="M194,4h6v5.4h-6V4z"/>
</svg>