<?xml version="1.0" encoding="utf-8"?>
<!-- Generator: Adobe Illustrator 26.0.2, SVG Export Plug-In . SVG Version: 6.00 Build 0)  -->
<svg version="1.1" id="Layer_1" xmlns="http://www.w3.org/2000/svg" xmlns:xlink="http://www.w3.org/1999/xlink" x="0px" y="0px"
	 viewBox="0 0 1500 300.1" style="enable-background:new 0 0 1500 300.1;" xml:space="preserve">
<style type="text/css">
	.st0{fill:#0D192C;}
</style>
<g>
	<path class="st0" d="M468.25,211.73h12.52c11.48,29.12,37.55,63.44,62.59,63.44c12.52,0,21.91-5.2,21.91-21.84
		c0-14.56-13.56-23.92-38.6-34.32c-30.25-12.48-55.29-26-55.29-65.52s29.21-61.36,81.37-61.36c18.78,0,42.77,4.16,60.5,12.48v56.16
		h-12.52c-11.47-31.2-30.25-55.12-49.02-55.12c-12.52,0-21.91,6.24-21.91,19.76c0,12.48,10.43,20.8,44.85,34.32
		c35.46,14.56,52.15,27.04,52.15,61.36c0,42.64-31.29,67.6-84.49,67.6c-18.78,0-51.11-4.16-68.84-15.6L468.25,211.73z"/>
	<path class="st0" d="M1061.78,189.89c0,39.52,12.52,67.6,43.81,67.6c25.03,0,38.6-4.16,50.07-30.16l9.39,5.2
		c-14.6,44.72-47.98,56.16-87.62,56.16c-65.72,0-98.05-28.08-98.05-97.76c0-64.48,35.46-99.84,99.09-99.84
		c88.66,0,89.71,60.32,89.71,79.04c0,12.48-3.13,18.72-15.65,18.72h-90.75V189.89z M1084.73,174.29
		c9.39-1.04,12.52-2.08,12.52-16.64c0-12.48,0-50.96-16.69-50.96c-14.61,0-18.78,37.44-18.78,69.68L1084.73,174.29z"/>
	<path class="st0" d="M355.59,189.89c0,39.52,12.52,67.6,43.81,67.6c25.03,0,38.6-4.16,50.07-30.16l9.39,5.2
		c-14.6,44.72-47.98,56.16-87.62,56.16c-65.72,0-98.05-28.08-98.05-97.76c0-64.48,35.47-99.84,99.1-99.84
		c88.66,0,89.71,60.32,89.71,79.04c0,12.48-3.13,18.72-15.65,18.72h-90.75V189.89z M378.54,174.29c9.39-1.04,12.52-2.08,12.52-16.64
		c0-12.48,0-50.96-16.69-50.96c-14.6,0-18.78,37.44-18.78,69.68L378.54,174.29z"/>
	<path class="st0" d="M717.55,113.97v111.28c0,26,5.22,37.44,19.82,37.44c5.22,0,8.35-1.04,12.52-2.08l2.09,10.4
		c-21.91,11.44-39.64,18.72-60.5,18.72c-33.38,0-53.2-12.48-53.2-48.88V113.97H619.5V96.29h20.86l47.98-43.68h29.2v43.68h31.3v16.64
		h-31.3V113.97z"/>
	<path class="st0" d="M173.04,43.25c45.9,0,83.45,3.12,83.45,53.04c0,28.08-19.82,49.92-68.85,54.08v3.12
		c38.6,3.12,77.19,10.4,77.19,59.28c0,60.32-63.63,70.72-111.61,70.72H29.09v-11.44c20.86-1.04,22.95-3.12,22.95-20.8V76.53
		c0-17.68-2.09-20.8-22.95-21.84V43.25H173.04z M134.45,149.33h9.39c23.99,0,31.29-11.44,31.29-43.68c0-34.32-14.6-46.8-27.12-46.8
		c-13.56,0-12.52,3.12-12.52,9.36v81.12H134.45z M134.45,252.29c0,11.44,1.04,17.68,16.69,17.68c16.69,0,29.21-18.72,29.21-54.08
		c0-33.28-10.43-53.04-36.51-53.04h-9.39V252.29z"/>
	<path class="st0" d="M941.82,118.13c-17.73-45.76-34.43-66.56-58.42-66.56c-15.65,0-31.29,6.24-31.29,30.16
		c0,19.76,20.86,34.32,45.9,44.72c55.29,23.92,74.06,38.48,74.06,83.2c0,42.64-26.08,81.12-101.18,81.12
		c-22.95,0-57.37-6.24-78.23-20.8l-4.17-71.76h13.56c21.91,47.84,40.68,78,71.97,78c18.78,0,30.25-10.4,30.25-29.12
		c0-14.56-3.13-30.16-40.68-45.76c-61.54-26-75.1-47.84-75.1-86.32c0-47.84,34.42-76.96,93.88-76.96c27.12,0,53.2,5.2,73.02,13.52
		v66.56H941.82z"/>
	<path class="st0" d="M1162.96,284.53v-11.44c18.78-1.04,20.86-2.08,20.86-20.8V58.85c0-10.4-2.09-14.56-8.34-15.6l-10.43-1.04
		V29.73l94.92-8.32l1.04,1.04v228.8c0,18.72,2.09,19.76,20.86,20.8v11.44h-118.91V284.53z"/>
	<path class="st0" d="M1277.7,96.29h20.86v-4.16c0-26,10.43-46.8,28.16-58.24c12.52-7.28,29.21-12.48,45.9-12.48
		c36.51,0,47.98,14.56,47.98,23.92c0,15.6-16.69,22.88-23.99,22.88c-8.34,0-11.47-2.08-15.65-10.4
		c-4.17-12.48-7.3-22.88-12.52-22.88c-3.13,0-4.17,3.12-4.17,6.24c0,21.84,12.52,39.52,12.52,55.12h29.21v16.64h-29.21v138.32
		c0,18.72,2.09,19.76,25.03,20.8v11.44H1277.7v-11.44c18.78-1.04,20.86-2.08,20.86-20.8V113.97h-20.86V96.29z"/>
	<path class="st0" d="M1437.09,39.8c0,9.89,8.05,17.94,17.94,17.94s17.99-8.05,17.99-17.94s-8.1-17.99-17.99-17.99
		S1437.09,29.91,1437.09,39.8z M1441.41,39.8c0-7.81,5.92-14.01,13.63-14.01c7.71,0,13.67,6.21,13.67,14.01s-5.96,13.97-13.67,13.97
		C1447.32,53.77,1441.41,47.61,1441.41,39.8z M1457.8,49.35h5.53l-3.69-7.37c2.04-1.02,3.44-3.1,3.44-5.58
		c0-3.54-2.91-6.35-6.64-6.35h-8.1v19.3h5.04v-6.5h1.45L1457.8,49.35z M1453.38,38.78v-4.66h2.09c1.55,0,2.52,0.87,2.52,2.33
		c0,1.41-0.97,2.33-2.52,2.33H1453.38z"/>
</g>
</svg>
